<?xml version="1.0" standalone="no"?><!DOCTYPE svg PUBLIC "-//W3C//DTD SVG 1.1//EN" "http://www.w3.org/Graphics/SVG/1.1/DTD/svg11.dtd"><svg t="1604997481688" class="icon" viewBox="0 0 1280 1024" version="1.1" xmlns="http://www.w3.org/2000/svg" p-id="3228" xmlns:xlink="http://www.w3.org/1999/xlink" width="40" height="32"><defs><style type="text/css"></style></defs><path d="M1228.8 102.4a102.4 102.4 0 0 1-102.4 102.4h-1024A102.4 102.4 0 1 1 102.4 0h1024a102.4 102.4 0 0 1 102.4 102.4z m0 409.6a102.4 102.4 0 0 1-102.4 102.4h-1024a102.4 102.4 0 1 1 0-204.8h1024a102.4 102.4 0 0 1 102.4 102.4z m0 409.6a102.4 102.4 0 0 1-102.4 102.4h-1024a102.4 102.4 0 1 1 0-204.8h1024a102.4 102.4 0 0 1 102.4 102.4z" p-id="3229" fill="#ffffff"></path></svg>