<?xml version="1.0" standalone="no"?><!DOCTYPE svg PUBLIC "-//W3C//DTD SVG 1.1//EN" "http://www.w3.org/Graphics/SVG/1.1/DTD/svg11.dtd"><svg t="1604997709191" class="icon" viewBox="0 0 1326 1024" version="1.1" xmlns="http://www.w3.org/2000/svg" p-id="9761" xmlns:xlink="http://www.w3.org/1999/xlink" width="41.4375" height="32"><defs><style type="text/css"></style></defs><path d="M1258.34214885 913.29254886a28.1223525 28.1223525 0 0 1-10.16470594-4.96941189 54.83294156 54.83294156 0 0 1-1.69411781-1.12941186 929.28 929.28 0 0 0-649.07294062-253.66588219L597.41038448 919.84313697a28.23529406 28.23529406 0 0 1-47.09647032 21.00705939L60.03626665 500.60549042a28.23529406 28.23529406 0 0 1-2.14588216-39.86823562C58.34214885 460.22901918 222.38920824 312.78431417 550.31391416 18.34666667a28.23529406 28.23529406 0 0 1 47.09647032 21.00705844l0 235.08705937C910.99156073 348.36078448 1166.18214885 574.24313698 1290.69979635 873.25490229a28.1223525 28.1223525 0 0 1-2.25882375 28.96941188 41.11058812 41.11058812 0 0 1-3.95294156 4.96941094c-8.18823563 6.88941188-16.94117625 8.9223525-26.14588219 6.09882375z" p-id="9762" fill="#ffffff"></path></svg>