<?xml version="1.0" standalone="no"?><!DOCTYPE svg PUBLIC "-//W3C//DTD SVG 1.1//EN" "http://www.w3.org/Graphics/SVG/1.1/DTD/svg11.dtd"><svg t="1604997727034" class="icon" viewBox="0 0 1325 1024" version="1.1" xmlns="http://www.w3.org/2000/svg" p-id="10605" xmlns:xlink="http://www.w3.org/1999/xlink" width="41.40625" height="32"><defs><style type="text/css"></style></defs><path d="M37.821741 962.800941a29.997176 29.997176 0 0 0 10.842353-5.300706 58.488471 58.488471 0 0 0 1.807059-1.204706 991.232 991.232 0 0 1 692.344471-270.576941V969.788235a30.117647 30.117647 0 0 0 50.236235 22.40753l522.962823-469.594353a30.117647 30.117647 0 0 0 2.288942-42.526118c-0.481882-0.542118-175.525647-157.816471-525.251765-471.883294a30.117647 30.117647 0 0 0-50.236235 22.407529v250.75953C408.329035 360.207059 136.125741 601.148235 3.306918 920.094118a29.997176 29.997176 0 0 0 2.409411 30.900706c1.204706 1.807059 2.590118 3.614118 4.216471 5.300705 8.734118 7.348706 18.070588 9.517176 27.888941 6.505412z" p-id="10606" fill="#ffffff"></path></svg>