<?xml version="1.0" standalone="no"?><!DOCTYPE svg PUBLIC "-//W3C//DTD SVG 1.1//EN" "http://www.w3.org/Graphics/SVG/1.1/DTD/svg11.dtd"><svg t="1604997576494" class="icon" viewBox="0 0 1024 1024" version="1.1" xmlns="http://www.w3.org/2000/svg" p-id="4325" xmlns:xlink="http://www.w3.org/1999/xlink" width="32" height="32"><defs><style type="text/css"></style></defs><path d="M480 28.8c-67.2 67.2-105.6 160-105.6 259.2 0 204.8 166.4 371.2 371.2 371.2 80 0 156.8-25.6 217.6-70.4C924.8 819.2 726.4 992 486.4 992 217.6 995.2 0 780.8 0 512 0 249.6 208 38.4 467.2 28.8h12.8z m3.2 0h-6.4 6.4z m163.2 188.8c105.6 0 188.8-83.2 188.8-188.8 0 105.6 83.2 188.8 188.8 188.8-105.6 0-188.8 83.2-188.8 188.8 0-105.6-86.4-188.8-188.8-188.8z" p-id="4326" fill="#ffffff"></path></svg>