<?xml version="1.0" standalone="no"?><!DOCTYPE svg PUBLIC "-//W3C//DTD SVG 1.1//EN" "http://www.w3.org/Graphics/SVG/1.1/DTD/svg11.dtd"><svg t="1605173123215" class="icon" viewBox="0 0 1357 1024" version="1.1" xmlns="http://www.w3.org/2000/svg" p-id="2936" xmlns:xlink="http://www.w3.org/1999/xlink" width="42.40625" height="32"><defs><style type="text/css"></style></defs><path d="M1269.11516 66.174542V20.452676l-16.66943-4.11973A715.142368 715.142368 0 0 0 1095.038682 0.020718c-117.114654 0-283.380313 26.671088-409.972729 153.715959l-6.429637 6.429638-6.405824-6.429638C545.59045 26.691806 379.32479 0.020718 262.23395 0.020718a715.404316 715.404316 0 0 0-157.407048 16.312228l-16.66943 4.11973v45.721866H0V1024h1357.367886V66.174542h-88.27654zM701.521062 187.266046a621.222036 621.222036 0 0 1 393.565247-143.380913 725.120213 725.120213 0 0 1 130.307317 11.620974v786.392275a274.569328 274.569328 0 0 0-48.22228-3.691088c-136.189245 0-372.918967 66.677721-475.650284 92.586778V187.266046zM131.998074 55.506107a725.286907 725.286907 0 0 1 130.283503-11.620974 554.711009 554.711009 0 0 1 386.65934 143.523793v744.933022c-95.82541-33.33886-332.531319-94.134654-468.744377-94.134654a274.283567 274.283567 0 0 0-48.198466 3.691088V55.506107zM47.626943 113.920553h40.649597V905.647046l31.171834-14.645285a148.405556 148.405556 0 0 1 60.77198-8.906239c138.927794 0 399.470987 76.203109 458.075941 94.0394H47.626943V113.920553zM1309.740942 976.134922H719.166845c58.58114-17.741036 319.100521-94.0394 458.052128-94.0394a148.476996 148.476996 0 0 1 60.795793 8.906239l31.148021 14.645285V113.920553H1309.740942V976.134922z" p-id="2937" fill="#1296db"></path></svg>