<?xml version="1.0" standalone="no"?><!DOCTYPE svg PUBLIC "-//W3C//DTD SVG 1.1//EN" "http://www.w3.org/Graphics/SVG/1.1/DTD/svg11.dtd"><svg t="1605772417296" class="icon" viewBox="0 0 1024 1024" version="1.1" xmlns="http://www.w3.org/2000/svg" p-id="5263" xmlns:xlink="http://www.w3.org/1999/xlink" width="32" height="32"><defs><style type="text/css"></style></defs><path d="M495.495606 24.327058c10.169617 0 20.340257 0 30.509874 0-1.305739 14.603603 0.704035 16.433274 7.626701 21.929452 78.56638 62.36335 135.583978 148.56564 163.040307 255.523651-122.673947-0.636496-247.897973 1.270946-368.983749-0.953721 26.316366-95.121428 73.464175-175.402869 139.202389-234.547921 8.03807-7.231705 26.544563-18.621103 28.603455-25.743314C496.927211 35.582403 494.294245 25.742291 495.495606 24.327058z" p-id="5264" fill="#66ccff"></path><path d="M321.014736 330.382593c127.760802 0 255.524674 0 383.285476 0 8.807596 44.024679 17.281595 92.089371 15.254425 140.157133-2.004657 47.594995-11.279904 93.920066-20.020986 134.435829-18.499329 85.739756-40.944528 167.56946-63.880913 245.035786-81.362053 0-162.722058 0-244.082064 0-26.009374-74.508971-46.935985-157.720138-65.788355-243.128343-17.784038-80.57206-30.555923-187.155541-5.720282-273.639241C319.97915 331.889923 319.904449 330.543252 321.014736 330.382593zM438.288696 446.703855c-16.819061 53.365418 20.218484 103.374392 74.367755 102.972233 22.230304-0.164752 45.756113-11.973706 58.160631-25.743314 45.328371-50.314942 6.866385-138.389884-65.787332-130.621966C468.46088 397.219837 446.746322 419.868673 438.288696 446.703855z" p-id="5265" fill="#66ccff"></path><path d="M144.627447 631.671567c0-9.852392 0-19.704784 0-29.557176 8.276501-80.075757 59.740616-122.04973 125.855406-141.109832 10.630105 121.582079 35.515888 228.90541 69.601194 327.032288-25.914206 36.45119-54.807257 74.761728-52.439326 136.342248C206.992843 859.785961 153.709289 767.833713 144.627447 631.671567z" p-id="5266" fill="#66ccff"></path><path d="M755.786841 461.004559c48.090275 14.754029 84.534302 38.581714 105.832374 77.228919 22.417569 40.683585 21.774933 99.481735 11.440563 156.366304-9.152451 50.382481-27.28339 93.780897-50.531883 132.528386-23.172769 38.618553-50.861388 73.873498-84.856643 96.29823 1.678222-45.382607-14.731516-80.741929-35.277458-111.553679-5.436826-8.151657-16.590863-18.313088-17.161868-23.835871-0.820692-7.928576 8.9263-25.977651 12.393261-37.184901 27.180036-87.839581 48.081065-183.322236 57.20691-287.940968C754.429937 461.077214 755.485988 459.470623 755.786841 461.004559z" p-id="5267" fill="#66ccff"></path><path d="M424.94069 879.567493c58.160631 0 116.320239 0 174.48087 0-10.613732 21.168112-23.887037 39.674605-34.323737 61.019749-10.406001-6.755868-17.083074-17.240663-26.697035-24.789593-8.78406 28.082592-17.911952 55.821353-26.696012 83.902922-11.537777-27.235294-21.544689-56.003502-32.417317-83.902922-7.946996 13.665231-14.512529 28.709879-21.929452 42.906206C445.493795 933.382143 435.402973 906.289088 424.94069 879.567493z" p-id="5268" fill="#66ccff"></path></svg>